# xmcd CD database file
#
# Track frame offsets:
#	150
#	23414
#	56040
#	75826
#	100484
#	132571
#	158240
#	181177
#	199608
#	213897
#	231419
#	255545
#
# Disc length: 4241 seconds
#
# Revision: 0
# Processed by: cddbd v1.5.2PL0 Copyright (c) Steve Scherf et al.
# Submitted via: CDex 1.70beta2
#
DISCID=97108f0c
DTITLE=寺井尚子 - Adagio　（アダージョ）
DYEAR=2009
DGENRE=Jazz
TTITLE0=タイム・トゥ・セイ・グッバイ
TTITLE1=アルビノーニのアダージョ 
TTITLE2=プルミエ・ラムール
TTITLE3=ニュー・シネマ・パラダイス ~愛のテーマ~ 
TTITLE4=サムタイム・アゴー ~ラ・フィエスタ
TTITLE5=クリニャンクール 
TTITLE6=心の鍵
TTITLE7=ラスト・ワルツ 
TTITLE8=風を感じて 
TTITLE9=リトル・クライ・フォー・ヒム 
TTITLE10=オンリー・ブルー 
TTITLE11=(エンハンスド)アルビノーニのアダージョ (ライヴ映像)
EXTD=YEAR: 2009
EXTT0=
EXTT1=
EXTT2=
EXTT3=
EXTT4=
EXTT5=
EXTT6=
EXTT7=
EXTT8=
EXTT9=
EXTT10=
EXTT11=
PLAYORDER=
